<?xml version="1.0" encoding="UTF-8"?>
<svg width="400" height="400" viewBox="0 0 400 400" fill="none" xmlns="http://www.w3.org/2000/svg">
  <path d="M200 50C117.157 50 50 117.157 50 200C50 282.843 117.157 350 200 350C282.843 350 350 282.843 350 200C350 117.157 282.843 50 200 50ZM200 320C133.726 320 80 266.274 80 200C80 133.726 133.726 80 200 80C266.274 80 320 133.726 320 200C320 266.274 266.274 320 200 320Z" fill="currentColor"/>
  <path d="M200 120C161.34 120 130 151.34 130 190C130 228.66 161.34 260 200 260C238.66 260 270 228.66 270 190C270 151.34 238.66 120 200 120ZM200 230C177.909 230 160 212.091 160 190C160 167.909 177.909 150 200 150C222.091 150 240 167.909 240 190C240 212.091 222.091 230 200 230Z" fill="currentColor"/>
  <path d="M285 180C276.716 180 270 186.716 270 195C270 203.284 276.716 210 285 210C293.284 210 300 203.284 300 195C300 186.716 293.284 180 285 180Z" fill="currentColor"/>
</svg>
